<?xml version="1.0" standalone="no"?>
<!-- Generator: Adobe Fireworks 10, Export SVG Extension by Aaron Beall (http://fireworks.abeall.com) . Version: 0.6.1  -->
<!DOCTYPE svg PUBLIC "-//W3C//DTD SVG 1.1//EN" "http://www.w3.org/Graphics/SVG/1.1/DTD/svg11.dtd">
<svg id="Untitled-Page%201" viewBox="0 0 44 108" style="background-color:#ffffff00" version="1.1"
	xmlns="http://www.w3.org/2000/svg" xmlns:xlink="http://www.w3.org/1999/xlink" xml:space="preserve"
	x="0px" y="0px" width="44px" height="108px"
>
	<g id="Layer%201">
		<g id="column_toggle">
			<path d="M 27.1013 4.0439 C 27.1471 4.0439 29.9303 4.0133 33.1935 4.0133 L 33.5149 4.0133 C 36.778 4.0133 39.5 5.6069 39.5 7.9473 L 39.5 100.0661 C 39.5 102.4064 36.778 104 33.5149 104 L 33.1935 104 C 29.9303 104 27.1318 104 27.1013 103.9695 L 27.1013 4.0439 L 27.1013 4.0439 Z" stroke="#a30809" stroke-width="2" fill="#e74c3c"/>
			<path d="M 5.9695 62.8588 C 2.6632 54.0331 5.9695 44.8713 5.9695 44.8713 C 5.9695 44.9553 21.0009 4 21.0009 4 C 21.0317 3.937 21.0317 103.9612 21.0317 103.9612 L 21.0009 103.9402 L 5.9695 62.8588 L 5.9695 62.8588 Z" stroke="#a30809" stroke-width="2" fill="#e74c3c"/>
		</g>
	</g>
</svg>