<?xml version="1.0" encoding="utf-8"?>
<!-- Generator: Adobe Illustrator 18.0.0, SVG Export Plug-In . SVG Version: 6.00 Build 0)  -->
<!DOCTYPE svg PUBLIC "-//W3C//DTD SVG 1.1//EN" "http://www.w3.org/Graphics/SVG/1.1/DTD/svg11.dtd">
<svg version="1.1" id="Capa_1" xmlns="http://www.w3.org/2000/svg" xmlns:xlink="http://www.w3.org/1999/xlink" x="0px" y="0px"
	 viewBox="0 0 48 48" enable-background="new 0 0 48 48" xml:space="preserve">
<g id="Layer_1">
	<g>
		<path d="M47,25L42.8,8.5c-0.3-1.1-1.4-1.8-2.5-1.6l-7.9,1.6c-0.4,0.1-0.8,0.1-1.1-0.1L16.9,3.6c-0.5-0.2-1-0.1-1.5,0L6.8,7.1
			C6.1,7.4,5.6,7.9,5.5,8.6L1.4,24.9c-0.2,0.7,0,1.5,0.6,2.1c0.5,0.5,1.3,0.8,2.1,0.6l2.5-0.7c0-0.1,0-0.1,0-0.2
			c-0.6-3.4,0.1-6.9,2.1-9.7c2.4-3.5,6.4-5.6,10.7-5.6c2.6,0,5.2,0.8,7.3,2.3c5.2,3.5,7,10.2,4.6,15.7l0.1,0c0.3,0.1,0.6,0.1,1,0.1
			l12.8-1.7c0.6-0.1,1.2-0.4,1.5-0.9S47.1,25.6,47,25z"/>
		<path d="M22.1,20.2c-0.8-0.6-1.8-0.9-2.8-0.9c-1.7,0-3.2,0.8-4.1,2.2c-0.7,1-0.9,2.1-0.8,3.3l1.2-0.3c0.4-0.1,0.8-0.1,1.2,0
			l6.8,2.3C24.8,24.5,24.2,21.7,22.1,20.2z"/>
		<path d="M9.1,32.4l-4.3,7.2c-1.1,1.9-0.5,4.4,1.4,5.5c0.6,0.4,1.3,0.6,2,0.6c1.4,0,2.7-0.7,3.4-2l4.1-6.9c-1.4-0.4-2.7-1-3.9-1.8
			C10.8,34.3,9.9,33.4,9.1,32.4z"/>
		<path d="M25.5,15.2c-1.9-1.3-4.1-1.9-6.2-1.9c-3.5,0-7,1.7-9.1,4.8C6.8,23.1,8,29.9,13,33.4c1.9,1.3,4.1,1.9,6.2,1.9
			c3.5,0,7-1.7,9.1-4.8C31.8,25.5,30.5,18.7,25.5,15.2z M25,28.3c-1.4,2-3.6,3-5.8,3c-1.4,0-2.7-0.4-3.9-1.2c-3.2-2.2-4-6.6-1.8-9.7
			c1.4-2,3.6-3,5.8-3c1.4,0,2.7,0.4,3.9,1.2C26.4,20.7,27.2,25.1,25,28.3z"/>
	</g>
</g>
</svg>
