<?xml version="1.0" standalone="no"?>
<!-- Generator: Adobe Fireworks 10, Export SVG Extension by Aaron Beall (http://fireworks.abeall.com) . Version: 0.6.1  -->
<!DOCTYPE svg PUBLIC "-//W3C//DTD SVG 1.1//EN" "http://www.w3.org/Graphics/SVG/1.1/DTD/svg11.dtd">
<svg id="Untitled-Page%201" viewBox="0 0 574 530" style="background-color:#ffffff00" version="1.1"
	xmlns="http://www.w3.org/2000/svg" xmlns:xlink="http://www.w3.org/1999/xlink" xml:space="preserve"
	x="0px" y="0px" width="574px" height="530px"
>
	<g id="Layer%201">
		<g>
			<path id="search7" d="M 341.633 396.092 C 233.2073 396.092 145.0147 314.6617 145.0147 214.5498 C 145.0147 114.4379 233.2073 33.0077 341.633 33.0077 C 450.0586 33.0077 538.2512 114.4379 538.2512 214.5498 C 538.2512 314.6617 450.0586 396.092 341.633 396.092 L 341.633 396.092 ZM 341.633 0 C 213.295 0 109.266 96.0524 109.266 214.5498 C 109.266 265.5471 128.6415 312.3187 160.8152 349.2207 L 7.2388 490.989 C -2.4129 499.934 -2.4129 514.391 7.2388 523.3037 C 16.8906 532.2155 32.5852 532.2487 42.237 523.3037 L 195.8134 381.5031 C 235.7089 411.2098 286.4006 429.0997 341.633 429.0997 C 469.9709 429.0997 574 333.0472 574 214.5498 C 574 96.0524 469.9349 0 341.633 0 L 341.633 0 Z" fill="#000000"/>
		</g>
	</g>
</svg>