<?xml version="1.0" encoding="utf-8"?>
<!-- Generator: Adobe Illustrator 16.0.0, SVG Export Plug-In . SVG Version: 6.00 Build 0)  -->
<!DOCTYPE svg PUBLIC "-//W3C//DTD SVG 1.1//EN" "http://www.w3.org/Graphics/SVG/1.1/DTD/svg11.dtd">
<svg version="1.1" id="Capa_1" xmlns="http://www.w3.org/2000/svg" xmlns:xlink="http://www.w3.org/1999/xlink" x="0px" y="0px"
	 width="36.695px" height="26.758px" viewBox="0 0 36.695 26.758" enable-background="new 0 0 36.695 26.758" xml:space="preserve">
<g>
	<path fill="#040606" d="M12.149,3.049c1.254,0.131,2.607,0.667,3.611,1.521c-0.236-0.702-0.259-1.394-0.107-1.807
		c0.091-0.246,0.159-0.521,0.105-0.81C15.568,0.873,14.421,0,13.174,0c-1.24,0-2.089,0.873-1.896,1.953
		c0.004,0.016,0.014,0.031,0.018,0.046c0.009,0.025-0.975,0.211-1.847,0.982C9.377,3.045,9.256,3.186,9.116,3.356
		C9.914,3.082,10.914,2.924,12.149,3.049z"/>
	<path fill="#040606" d="M36.081,15.573c-0.037-0.084-0.076-0.166-0.116-0.248c-0.063-0.135-0.772-1.152-1.578-2.273
		c0,0-2.993-4.427-5.14-7.433c-0.505-0.515-1.837-1.864-4.624-1.575c-1.576,0.164-3.421,1.101-4.018,2.536
		c-0.079,0.535-0.159,0.968-0.229,0.968c-0.17,0-0.368-0.624-0.846-1.1c-0.282-0.28-0.711-0.454-1.143-0.454
		c-0.43,0-0.837,0.174-1.117,0.455c-0.478,0.478-0.771,1.099-0.939,1.099c-0.032,0-0.088-0.287-0.154-0.679
		c-0.448-1.601-2.449-2.65-4.131-2.825c-2.717-0.282-4.046,0.99-4.578,1.53c-2.139,3-5.157,7.479-5.157,7.479
		c-0.807,1.119-1.515,2.138-1.578,2.273c-0.039,0.082-0.076,0.164-0.11,0.252C0.224,16.532,0,17.575,0,18.67
		c0,4.472,3.46,8.088,7.931,8.088c4.465,0,7.918-3.616,7.918-8.088v-1.241c0-0.687,0.523-1.685,1.148-1.917
		c0.352-0.133,0.837-0.206,1.269-0.206s1.04,0.073,1.392,0.206c0.626,0.232,1.191,1.23,1.191,1.917s0,1.241,0,1.241
		c0,4.472,3.457,8.088,7.921,8.088s7.926-3.616,7.926-8.088C36.695,17.575,36.477,16.532,36.081,15.573z M8.098,24.499
		c-3.218,0-5.825-2.615-5.825-5.828c0-3.211,2.607-5.823,5.825-5.823c3.209,0,5.822,2.612,5.822,5.823
		C13.921,21.883,11.307,24.499,8.098,24.499z M18.308,12.828c-1.203,0-2.206-0.87-1.539-1.539c0.396-0.394,0.939-0.638,1.543-0.638
		c0.599,0,1.141,0.244,1.534,0.638C20.514,11.956,19.51,12.828,18.308,12.828z M28.848,24.129c-3.088,0-5.606-2.518-5.606-5.604
		c0-3.09,2.521-5.603,5.606-5.603c3.092,0,5.6,2.513,5.6,5.603C34.447,21.612,31.939,24.129,28.848,24.129z"/>
	<path fill="#040606" d="M20.94,4.543c1.001-0.839,2.339-1.365,3.579-1.495c1.244-0.126,2.249,0.036,3.049,0.314
		c-0.154-0.19-0.286-0.344-0.362-0.41c-0.856-0.747-1.813-0.929-1.806-0.954c0.006-0.015,0.01-0.03,0.014-0.046
		C25.606,0.873,24.75,0,23.501,0C22.26,0,21.093,0.873,20.9,1.953c-0.053,0.288-0.025,0.563,0.063,0.81
		C21.113,3.172,21.162,3.852,20.94,4.543z"/>
</g>
</svg>
